<svg id="Layer_1" data-name="Layer 1" xmlns="http://www.w3.org/2000/svg" viewBox="0 0 59.94 58.77"><defs><style>.cls-1{fill:#f6f9fc;}.cls-2{fill:#bcc0c4;}.cls-3{fill:#49d492;}.cls-4{fill:#00b728;}.cls-5{fill:#ffe54f;}.cls-6{fill:#fdc300;}</style></defs><title>Engaging_School_Community_Icon_60x60px</title><circle class="cls-1" cx="29.97" cy="28.81" r="19.66"/><path class="cls-2" d="M15,54.38A28.81,28.81,0,0,1,1.23,33.7l2-.29A26.82,26.82,0,0,0,16,52.66Z" transform="translate(-0.03 -0.61)"/><path class="cls-2" d="M45,54.21l-1-1.7A26.85,26.85,0,0,0,56.53,33.42l2,0.29A28.85,28.85,0,0,1,45,54.21Z" transform="translate(-0.03 -0.61)"/><path class="cls-2" d="M17.77,5.48l-0.9-1.79a29,29,0,0,1,26,0L42,5.48A27,27,0,0,0,17.77,5.48Z" transform="translate(-0.03 -0.61)"/><path class="cls-3" d="M48.62,29.42A27.49,27.49,0,0,0,59,27.35v-3.1c0-1.68-5.69-4.14-10.35-4.14s-10.35,2.46-10.35,4.14v3.1A27.49,27.49,0,0,0,48.62,29.42Z" transform="translate(-0.03 -0.61)"/><path class="cls-4" d="M48.62,30.42a28.45,28.45,0,0,1-10.68-2.13l-0.67-.24V24.25c0-2.79,7-5.14,11.35-5.14S60,21.46,60,24.25v3.81l-0.67.24A28.44,28.44,0,0,1,48.62,30.42Zm-9.35-3.78a25.46,25.46,0,0,0,18.69,0v-2.4c-0.25-.83-4.76-3.14-9.35-3.14s-9.09,2.31-9.35,3.18v2.35Z" transform="translate(-0.03 -0.61)"/><path class="cls-3" d="M48.62,7.69a5.14,5.14,0,0,0-5.17,4.84V16.3a5.18,5.18,0,0,0,10.35,0V12.53A5.14,5.14,0,0,0,48.62,7.69Z" transform="translate(-0.03 -0.61)"/><path class="cls-4" d="M48.62,22.14a6.1,6.1,0,0,1-6.17-5.84V12.53a6.18,6.18,0,0,1,12.35,0V16.3A6.1,6.1,0,0,1,48.62,22.14Zm0-13.45a4.12,4.12,0,0,0-4.17,3.84V16.3a4.19,4.19,0,0,0,8.35,0V12.53A4.12,4.12,0,0,0,48.62,8.69Z" transform="translate(-0.03 -0.61)"/><path class="cls-5" d="M30,58.39a27.49,27.49,0,0,0,10.35-2.07v-3.1c0-1.68-5.69-4.14-10.35-4.14s-10.35,2.46-10.35,4.14v3.1A27.49,27.49,0,0,0,30,58.39Z" transform="translate(-0.03 -0.61)"/><path class="cls-6" d="M30,59.39a28.46,28.46,0,0,1-10.68-2.13L18.65,57V53.21c0-2.79,7-5.14,11.35-5.14s11.35,2.35,11.35,5.14V57l-0.67.24A28.45,28.45,0,0,1,30,59.39Zm-9.35-3.78a25.46,25.46,0,0,0,18.69,0v-2.4c-0.25-.83-4.76-3.14-9.35-3.14s-9.09,2.31-9.35,3.18v2.35Z" transform="translate(-0.03 -0.61)"/><path class="cls-5" d="M30,36.66a5.14,5.14,0,0,0-5.17,4.84v3.76a5.18,5.18,0,0,0,10.35,0V41.5A5.14,5.14,0,0,0,30,36.66Z" transform="translate(-0.03 -0.61)"/><path class="cls-6" d="M30,51.11a6.1,6.1,0,0,1-6.17-5.84V41.5a6.18,6.18,0,0,1,12.35,0v3.76A6.1,6.1,0,0,1,30,51.11Zm0-13.45a4.12,4.12,0,0,0-4.17,3.84v3.76a4.19,4.19,0,0,0,8.35,0V41.5A4.12,4.12,0,0,0,30,37.66Z" transform="translate(-0.03 -0.61)"/><path class="cls-3" d="M11.38,29.42a27.49,27.49,0,0,0,10.35-2.07v-3.1c0-1.68-5.69-4.14-10.35-4.14S1,22.56,1,24.25v3.1A27.49,27.49,0,0,0,11.38,29.42Z" transform="translate(-0.03 -0.61)"/><path class="cls-4" d="M11.38,30.42A28.44,28.44,0,0,1,.7,28.29L0,28.05V24.25c0-2.79,7-5.14,11.35-5.14s11.35,2.35,11.35,5.14v3.81l-0.67.24A28.44,28.44,0,0,1,11.38,30.42ZM2,26.64a25.46,25.46,0,0,0,18.69,0v-2.4c-0.25-.83-4.76-3.14-9.35-3.14S2.28,23.42,2,24.29v2.35Z" transform="translate(-0.03 -0.61)"/><path class="cls-3" d="M11.38,7.69A5.14,5.14,0,0,0,6.2,12.53V16.3a5.18,5.18,0,0,0,10.35,0V12.53A5.14,5.14,0,0,0,11.38,7.69Z" transform="translate(-0.03 -0.61)"/><path class="cls-4" d="M11.38,22.14A6.1,6.1,0,0,1,5.2,16.3V12.53a6.1,6.1,0,0,1,6.17-5.84,6.1,6.1,0,0,1,6.17,5.84V16.3A6.1,6.1,0,0,1,11.38,22.14Zm0-13.45A4.12,4.12,0,0,0,7.2,12.53V16.3a4.12,4.12,0,0,0,4.17,3.84,4.12,4.12,0,0,0,4.17-3.84V12.53A4.12,4.12,0,0,0,11.38,8.69Z" transform="translate(-0.03 -0.61)"/></svg>