<svg id="Layer_1" data-name="Layer 1" xmlns="http://www.w3.org/2000/svg" viewBox="0 0 59.05 59.72"><defs><style>.cls-1{fill:#f6f9fc;}.cls-2{fill:#fff;}.cls-3{fill:#fdc300;}.cls-4{fill:#ffe54f;}.cls-5{fill:#495062;}.cls-6{fill:#bcc0c4;}.cls-7{fill:#49d492;}.cls-8{fill:#00b728;}</style></defs><title>Fundraise_Faster_Icon_60x60px</title><circle class="cls-1" cx="29.65" cy="32.93" r="24.42"/><path class="cls-2" d="M53.08,28.16c-2.32.54-4.34,1.93-5.91,5L42,35.67l-0.18.09a3.6,3.6,0,0,0-2.69-1H33.52c-1.09,0-4.32-1.92-6.06-1.92H20.36A8.39,8.39,0,0,0,15,34.57c-2,2-7,6.69-7.53,7.15,3.13,2.71,9.64,8.91,11.07,10.18,1.94-1.94,2.71-3.77,4.31-3.77H40.4c1.46,0,9.42-7.27,10.44-8.41S57,31.88,58.24,29C57.48,28,55.51,27.59,53.08,28.16Z" transform="translate(-0.34 -0.35)"/><path class="cls-3" d="M18.63,53.26l-0.7-.62c-0.53-.47-1.77-1.62-3.27-3-2.47-2.3-5.84-5.45-7.8-7.15L6,41.69l0.93-.75c0.51-.41,5.5-5.12,7.45-7.08a9.35,9.35,0,0,1,6-2.07h7.11a12.06,12.06,0,0,1,4,1.2,11.15,11.15,0,0,0,2,.72h5.57a4.76,4.76,0,0,1,2.85.86l4.5-2.19a9.58,9.58,0,0,1,6.41-5.19C55.62,26.54,58,27,59,28.45l0.34,0.46-0.23.53c-1.31,3.07-6.67,9.93-7.57,10.94-0.08.09-9,8.74-11.19,8.74H22.9c-0.6,0-1.09.57-2,1.65A24.19,24.19,0,0,1,19.3,52.6ZM9,41.71c2,1.76,4.74,4.33,7,6.45l2.51,2.33c0.31-.35.58-0.68,0.84-1,1.05-1.28,2-2.38,3.53-2.38H40.4c1.22-.29,8.4-6.62,9.7-8.07A77.94,77.94,0,0,0,57,29.29a5.59,5.59,0,0,0-3.71-.16,7.71,7.71,0,0,0-5.24,4.46l-0.15.3-4.66,2.27a4.46,4.46,0,0,1,.43,1.91,4.33,4.33,0,0,1-4.59,4.35H28.56v-2H39.09a2.36,2.36,0,1,0,0-4.7H33.52a8.51,8.51,0,0,1-2.78-.87,11.66,11.66,0,0,0-3.28-1H20.36a7.46,7.46,0,0,0-4.63,1.5C14.19,36.84,10.7,40.16,9,41.71Z" transform="translate(-0.34 -0.35)"/><rect class="cls-4" x="7.63" y="37.98" width="9.19" height="20.41" transform="translate(-30.84 22.41) rotate(-45.01)"/><path class="cls-3" d="M16.19,60.07L0.34,44.22,8.26,36.3,24.1,52.15Zm-13-15.85,13,13,5.08-5.09-13-13Z" transform="translate(-0.34 -0.35)"/><rect class="cls-5" x="7.36" y="42.79" width="2" height="3.56" transform="translate(-29.42 18.63) rotate(-45.01)"/><rect class="cls-6" x="54.03" y="13.3" width="2" height="1.92"/><rect class="cls-6" x="54.03" y="17.13" width="2" height="1.92"/><rect class="cls-6" x="52.15" y="15.17" width="1.92" height="2"/><rect class="cls-6" x="55.99" y="15.17" width="1.92" height="2"/><rect class="cls-6" x="46.41" y="49.64" width="2.87" height="2"/><rect class="cls-6" x="53.11" y="49.64" width="2.87" height="2"/><rect class="cls-6" x="50.2" y="52.56" width="2" height="2.87"/><rect class="cls-6" x="50.2" y="45.85" width="2" height="2.87"/><rect class="cls-6" x="6.14" y="15.52" width="2.71" height="2" transform="translate(-9.83 9.79) rotate(-45)"/><rect class="cls-6" x="10.92" y="10.73" width="2.71" height="2" transform="translate(-5.04 11.77) rotate(-45)"/><rect class="cls-6" x="11.28" y="15.16" width="2" height="2.71" transform="translate(-8.43 13.17) rotate(-44.99)"/><rect class="cls-6" x="6.49" y="10.38" width="2" height="2.71" transform="translate(-6.44 8.38) rotate(-45.01)"/><path class="cls-7" d="M33.85,6.93H33.4C30.54-1.78,17.26.06,17.26,10c0,11,9.38,12.62,16.37,18.89C40.61,22.61,50,21.11,50,10.13,50,0.19,36.71-1.78,33.85,6.93Z" transform="translate(-0.34 -0.35)"/><path class="cls-8" d="M33.63,30.23L33,29.63a47.85,47.85,0,0,0-6.19-4.48C21.36,21.67,16.26,18.38,16.26,10A9.27,9.27,0,0,1,24.16.47a9,9,0,0,1,9.46,4.46A8.9,8.9,0,0,1,43,.52a9.36,9.36,0,0,1,8,9.6c0,8.35-5.07,11.59-10.45,15a46.59,46.59,0,0,0-6.25,4.5ZM25.7,2.35a7.75,7.75,0,0,0-1.22.1A7.25,7.25,0,0,0,18.26,10c0,7.29,4.44,10.16,9.59,13.47a54.55,54.55,0,0,1,5.78,4.09,53.27,53.27,0,0,1,5.84-4.11C44.58,20.19,49,17.38,49,10.13A7.33,7.33,0,0,0,42.7,2.5,6.91,6.91,0,0,0,34.8,7.24l-0.23.69H32.67l-0.23-.69A6.88,6.88,0,0,0,25.7,2.35Z" transform="translate(-0.34 -0.35)"/></svg>