<svg id="Layer_1" data-name="Layer 1" xmlns="http://www.w3.org/2000/svg" viewBox="0 0 60 49.7"><defs><style>.cls-1{fill:#f6f9fc;}.cls-2{fill:#fff;}.cls-3{fill:#495062;}.cls-4{fill:#bcc0c4;}.cls-5{fill:#ffe54f;}.cls-6{fill:#fdc300;}.cls-7{fill:#00b728;}</style></defs><title>Save_Time_Icon_60x60px</title><circle class="cls-1" cx="33.71" cy="20.6" r="20.6"/><path class="cls-2" d="M57.76,48L15.19,30.55s-1.64,1.23-3.83,3-1.44,4.57.66,7c2.85,3.24,5.26,5,11.11,6.08,3.93,0.72,5.42.79,8.09,2.83l1.64,1.49c1.4,1.68,5.6,3.42,8.26,3.42h8.33a8.89,8.89,0,0,0,6.79-2.93A13,13,0,0,0,58.37,48Z" transform="translate(0 -5.65)"/><path class="cls-3" d="M49.43,55.35H41.11c-2.93,0-7.34-1.84-9-3.73l-1.59-1.45c-2.13-1.62-3.38-1.85-6.42-2.38l-1.18-.21c-4-.73-6.67-1.83-9-3.7l1.27-1.55c2,1.66,4.36,2.61,8,3.28l1.17,0.21c3.18,0.56,4.77.84,7.35,2.82l1.8,1.64c1.22,1.46,5.14,3.06,7.49,3.06h8.33a7.86,7.86,0,0,0,6-2.6,12,12,0,0,0,1.95-3.1l0.3,0.11L57.65,47l2.18-.24-0.52,1.49A13.85,13.85,0,0,1,57,52.1,9.91,9.91,0,0,1,49.43,55.35Z" transform="translate(0 -5.65)"/><path class="cls-3" d="M11.27,41.18a7.49,7.49,0,0,1-2.21-5.3,4.4,4.4,0,0,1,1.67-3.08c2.18-1.79,3.85-3,3.86-3.06l1.2,1.6s-1.65,1.24-3.79,3a2.39,2.39,0,0,0-.94,1.7,5.67,5.67,0,0,0,1.72,3.82Z" transform="translate(0 -5.65)"/><path class="cls-4" d="M45,22.64a17.23,17.23,0,0,0-14.93-8.5H10.3v-2H30.11a19.47,19.47,0,0,1,16.65,9.48Z" transform="translate(0 -5.65)"/><rect class="cls-4" x="6.56" y="6.49" width="1.87" height="2"/><rect class="cls-4" x="2.81" y="6.49" width="1.87" height="2"/><path class="cls-5" d="M15,31.29c-0.5,3.93,5.52,8.19,8.11,9.13,3.64,1.32,7.23.64,10.66,4.81S42.2,50.9,47.38,50.9s7.91,0.24,10-1.43c1.32-1.3,2.39-4.74.91-5.34-1.86-.74-6.34-1.72-8.95-2.36-1.86-2.41-7.11-12.55-8.19-15.14-0.84-2-1.84-2.23-3.68-1.55-1.64.61-5.36,2-8.46-.51s-0.58-4.42-2.57-4.66-2.59-.39-4.19,1.11S15.48,27.36,15,31.29Z" transform="translate(0 -5.65)"/><path class="cls-6" d="M50.47,51.91h-3.1c-6.17,0-11.15-2.09-14.4-6-2.22-2.69-4.41-3.14-7-3.66a22.93,22.93,0,0,1-3.28-.85c-2.65-1-9.35-5.54-8.76-10.2,0.55-4.29,5.83-9.24,7.57-10.87s2.76-1.65,4.75-1.4l0.25,0a1.85,1.85,0,0,1,1.75,2.2,2.9,2.9,0,0,0,1.34,2.68c2.61,2.15,5.84,1,7.4.38,2.55-.94,4-0.31,5,2.07a135.09,135.09,0,0,0,7.86,14.64l1.51,0.36a66.87,66.87,0,0,1,7.22,2,2.13,2.13,0,0,1,1.28,1.64,7,7,0,0,1-1.86,5.34L58,50.25C56.13,51.75,53.91,51.91,50.47,51.91ZM24.8,20.76a2.47,2.47,0,0,0-1.87,1c-4.31,4-6.65,7.29-7,9.66-0.41,3.19,5,7.17,7.45,8.06a21.14,21.14,0,0,0,3,.77c2.67,0.54,5.43,1.11,8.1,4.35,2.9,3.52,7.22,5.3,12.86,5.3h1.73c3.88,0,6,0,7.6-1.18,1.06-1.09,1.53-3.32,1.2-3.67A67,67,0,0,0,51,43.2l-1.88-.45-0.34-.08-0.21-.28c-2-2.58-7.27-12.86-8.32-15.36-0.58-1.39-.94-1.54-2.41-1-1.83.68-5.95,2.2-9.44-.68A4.8,4.8,0,0,1,26.3,21.1c0-.06,0-0.13,0-0.19l-0.24,0A11.19,11.19,0,0,0,24.8,20.76Z" transform="translate(0 -5.65)"/><rect class="cls-3" x="37.4" y="23.41" width="2" height="1.87"/><rect class="cls-3" x="39.27" y="27.16" width="2" height="1.87"/><rect class="cls-3" x="41.14" y="30.9" width="2" height="1.87"/><rect class="cls-7" x="2.81" y="33.65" width="14.05" height="2"/><rect class="cls-7" y="25.22" width="8.43" height="2"/><rect class="cls-7" x="10.3" y="19.6" width="14.05" height="2"/><rect class="cls-7" x="6.56" y="19.6" width="1.87" height="2"/><rect class="cls-4" x="9.37" y="44.89" width="13.11" height="2"/></svg>